<svg width="222" height="20" viewBox="0 0 222 20" fill="none" xmlns="http://www.w3.org/2000/svg">
<g clip-path="url(#clip0_201_6)">
<path d="M219.966 20L217.972 19.4009C137.556 -4.69096 2.94566 15.7771 1.59563 15.9858L0.00146484 13.5401C23.2309 6.51977 67.0058 3.05811 129.982 3.18072C146.816 3.22024 162.842 3.52709 176.475 3.90608C110.007 0.395918 11.3962 5.41715 10.1702 5.48099L7.94036 5.59627L7.54686 2.97192L9.77668 2.85614C10.159 2.83587 48.4308 0.868036 92.961 0.215455C152.886 -0.664112 195.027 1.13263 218.179 5.55174L217.283 8.11672C216.594 8.08024 187.32 6.52673 149.764 6.00892C174.621 7.4671 199.078 10.7826 219.998 17.0541L221.995 17.6518L219.966 20Z" fill="#4A4ED2"/>
</g>
<defs>
<clipPath id="clip0_201_6">
<rect width="222" height="20" fill="white"/>
</clipPath>
</defs>
</svg>
